<svg width="173" height="135" viewBox="0 0 173 135" fill="none" xmlns="http://www.w3.org/2000/svg">
<path d="M28.8104 69.11C36.8858 68.7325 44.9658 68.355 53.0412 67.9732C49.1527 65.9612 43.6417 62.6708 38.0607 57.5572C33.9205 53.7606 30.4656 50.6161 28.0178 45.5196C26.7776 42.9371 21.192 31.2985 28.1484 22.2939C33.0346 15.9705 41.0773 14.8723 42.0238 14.7565C47.4836 14.0872 51.5958 15.7732 56.8271 17.9182C57.0742 18.0211 57.3633 18.1412 57.6897 18.2828C64.0213 21.0798 68.4926 24.4904 71.8915 27.1587C76.9689 31.1398 81.7712 35.0179 86.471 38.9474C86.4663 37.0341 86.4663 35.1208 86.4663 33.2118C86.4663 29.3723 86.4663 25.5328 86.4756 21.6933C85.2261 20.372 83.5243 18.6432 81.4122 16.7041C78.3676 13.9114 75.6075 11.7149 74.1435 10.6253C71.677 8.78488 65.434 4.13458 57.0929 1.74938C54.4213 0.985768 40.1309 -2.80654 26.2834 4.13458C23.9148 5.3229 18.3106 8.21003 14.0118 14.2932C9.54983 20.608 9.04628 26.7426 8.85046 29.5911C8.20238 39.0719 11.993 46.1331 15.0608 51.843C17.3781 56.1415 21.537 62.615 28.8104 69.11Z" fill="#B40056"/>
<mask id="mask0_2463_653" style="mask-type:luminance" maskUnits="userSpaceOnUse" x="86" y="0" width="79" height="70">
<path d="M164.161 0H86.4707V69.0895H164.161V0Z" fill="white"/>
</mask>
<g mask="url(#mask0_2463_653)">
<path d="M144.14 69.0866C136.064 68.7091 127.984 68.3315 119.909 67.9497C123.798 65.9378 129.309 62.6474 134.89 57.5338C139.03 53.7372 142.485 50.5926 144.932 45.4962C146.173 42.9137 151.758 31.275 144.802 22.2705C139.916 15.9471 131.873 14.8489 130.926 14.733C125.467 14.0638 121.354 15.7498 116.123 17.8947C115.876 17.9977 115.587 18.1178 115.261 18.2594C108.929 21.0564 104.458 24.4669 101.059 27.1353C95.9814 31.1163 91.179 34.9944 86.4793 38.924C86.4839 37.0107 86.4839 35.0974 86.4839 33.1884C86.4839 29.3489 86.4839 25.5094 86.4746 21.6699C87.7241 20.3486 89.4259 18.6197 91.538 16.6807C94.5826 13.8879 97.3428 11.6915 98.8068 10.6018C101.273 8.76144 107.516 4.11115 115.857 1.72594C118.529 0.96233 132.819 -2.82998 146.667 4.11115C149.035 5.29946 154.64 8.18659 158.938 14.2697C163.4 20.5845 163.904 26.7191 164.1 29.5677C164.748 39.0484 160.957 46.1097 157.889 51.8196C155.572 56.1181 151.413 62.5916 144.14 69.0866Z" fill="#B40056"/>
</g>
<path d="M84.8248 91.295C83.7151 95.4176 83.9995 99.8234 85.72 103.774C85.9811 104.375 86.7411 104.834 87.4311 104.414C88.1351 103.989 88.3916 103.345 88.4009 102.59C88.4102 101.81 88.331 101.02 88.2937 100.244C88.2144 98.5922 88.1398 96.9362 88.0605 95.2846C87.2819 95.2846 86.5079 95.2846 85.7293 95.2846C85.9251 97.9658 85.8365 100.668 85.4169 103.328C86.1816 103.423 86.9415 103.517 87.7062 103.611C87.9626 100.759 88.2237 97.9101 88.4802 95.0572C88.5874 93.8518 88.8298 92.5948 88.7319 91.3808C88.6433 90.3126 88.2191 89.1757 87.0861 88.6996C86.7877 89.3516 86.4893 90.008 86.1862 90.6601C86.797 90.8788 87.4498 90.9732 88.1025 90.9518C87.7155 90.5957 87.3239 90.2354 86.9369 89.8793C86.9742 90.4327 86.5499 90.8917 86.2841 91.3636C85.9345 91.9814 85.6547 92.642 85.4542 93.3112C85.0533 94.6711 84.9367 96.1083 84.9693 97.5154C85.0066 99.0941 85.2211 100.66 85.4542 102.221C85.5568 102.916 85.5941 103.637 86.1769 104.156C86.811 104.718 87.8601 104.71 88.4708 104.126C89.063 103.551 88.8252 102.539 87.958 102.333C87.3052 102.179 86.6338 102.114 85.9624 102.174C85.3377 102.23 84.7968 102.629 84.7968 103.247C84.7968 103.826 85.3283 104.319 85.9624 104.319C86.4333 104.319 86.9089 104.319 87.3798 104.315C87.3798 103.599 87.3798 102.886 87.3798 102.17C86.8157 102.183 86.2515 102.2 85.6873 102.213C84.7269 102.239 84.3352 103.088 84.6803 103.826C84.9787 104.465 85.6594 104.757 86.3727 104.813C86.3727 104.096 86.3727 103.384 86.3727 102.668C86.0603 102.659 85.748 102.65 85.4309 102.642C84.8015 102.625 84.2653 103.148 84.2653 103.714C84.2653 104.349 84.8015 104.722 85.4309 104.787C87.2493 104.971 89.2634 104.487 89.6784 102.603C90.0328 100.982 89.1329 99.2914 88.1165 98.0216C87.571 97.3395 86.9602 96.7132 86.2468 96.1812C85.8878 95.9152 85.5195 95.6578 85.1279 95.4305C84.8947 95.2932 84.3212 95.0873 84.2047 94.8256C84.0601 94.4953 84.7735 94.0963 85.0533 93.9848C85.9391 93.6416 86.9182 93.603 87.8041 93.234C88.8811 92.7836 89.7204 91.5438 88.6946 90.6215C88.2657 90.2354 87.6083 90.1667 87.0488 90.0766C86.3914 89.9737 85.7293 89.9007 85.0626 89.8578C84.2793 89.8064 83.7711 90.5828 83.9389 91.2135C84.172 92.1015 84.8901 92.612 85.4682 93.2984C85.8365 93.7317 86.107 94.2379 86.2841 94.7484C86.6991 95.9667 86.6571 97.2451 86.2002 98.4549C85.9997 98.9825 85.692 99.5102 85.305 99.9435C84.8108 100.501 84.1068 100.853 83.6452 101.424C82.9551 102.273 83.1696 103.35 84.1208 103.929C85.002 104.465 86.1349 104.667 87.1607 104.774C87.0581 104.07 86.9555 103.371 86.853 102.668C86.2888 102.745 85.7386 102.668 85.1978 102.517C85.0952 103.221 84.9926 103.92 84.8901 104.624C85.1931 104.637 85.4962 104.65 85.7992 104.662C85.6034 104.615 85.4076 104.564 85.2118 104.517C85.5754 104.718 85.9391 104.916 86.2981 105.117C86.4939 104.452 86.6898 103.783 86.8856 103.118C86.4706 103.127 86.051 103.135 85.6361 103.148C84.1394 103.182 84.1347 105.327 85.6361 105.293C86.051 105.284 86.4706 105.276 86.8856 105.263C88.0372 105.237 88.4802 103.817 87.4731 103.264C87.1141 103.067 86.7597 102.839 86.3867 102.663C85.9391 102.453 85.3843 102.5 84.8901 102.479C83.5473 102.423 83.3515 104.242 84.5823 104.585C85.5428 104.851 86.4893 104.873 87.4731 104.735C88.0372 104.658 88.3869 104.032 88.3076 103.56C88.2144 102.998 87.7575 102.689 87.1607 102.629C86.7177 102.582 86.2655 102.475 85.8505 102.329C85.7573 102.294 85.5148 102.131 85.4216 102.149C85.3143 102.32 85.333 102.513 85.4775 102.732C85.4869 102.676 85.5242 102.633 85.5941 102.603C86.1303 102.307 86.6478 101.797 87.0395 101.351C87.9346 100.33 88.5408 99.1155 88.7646 97.8157C88.9884 96.5158 88.9231 95.1602 88.4289 93.9161C88.1911 93.3112 87.8834 92.7321 87.4731 92.213C87.0861 91.724 86.3354 91.2392 86.1769 90.6386C85.8039 91.089 85.4262 91.5438 85.0533 91.9942C85.4729 92.0243 85.8925 92.0586 86.3075 92.1186C86.5313 92.153 86.7504 92.1873 86.9695 92.2302C87.0441 92.243 87.1141 92.2602 87.1887 92.2731C87.3845 92.3245 87.3612 92.3074 87.1141 92.213C87.0161 92.0543 86.9136 91.8956 86.8157 91.7411C86.811 91.7325 86.811 91.7197 86.8063 91.7111C86.8576 91.5309 86.9136 91.3507 86.9649 91.1706C86.8576 91.3851 86.2329 91.4751 85.9671 91.5395C85.5242 91.6424 85.0719 91.7197 84.6336 91.8484C83.7245 92.1101 82.9225 92.5734 82.3677 93.2984C81.7895 94.0491 81.659 95.0615 82.1719 95.8766C82.6288 96.6016 83.44 96.9663 84.1627 97.4167C85.4682 98.2318 86.6245 99.4845 87.1793 100.857C87.3565 101.295 87.6083 102.016 87.2726 102.427C86.9042 102.882 85.9205 102.698 85.4169 102.646C85.4169 103.363 85.4169 104.075 85.4169 104.791C85.7293 104.8 86.0417 104.808 86.3587 104.817C86.9882 104.834 87.5244 104.311 87.5244 103.744C87.5244 103.122 86.9882 102.723 86.3587 102.672C86.7131 102.955 86.8203 102.981 86.6805 102.749C86.3448 103.285 86.0091 103.826 85.6734 104.362C86.2375 104.349 86.8017 104.332 87.3658 104.319C88.8625 104.281 88.8718 102.17 87.3658 102.174C86.8949 102.174 86.4193 102.174 85.9484 102.179C85.9484 102.895 85.9484 103.607 85.9484 104.324C86.4287 104.281 86.8576 104.298 87.3239 104.409C87.1514 103.813 86.9788 103.212 86.811 102.616C86.8203 102.603 86.8343 102.59 86.8436 102.582C87.0395 102.535 87.2353 102.483 87.4311 102.436C87.6316 102.419 87.7808 102.886 87.8367 102.62C87.8554 102.539 87.7948 102.376 87.7808 102.294C87.7388 102.007 87.6969 101.715 87.6549 101.428C87.5663 100.797 87.4824 100.167 87.4218 99.5359C87.3006 98.3476 87.2399 97.1507 87.3239 95.9581C87.3985 94.9371 87.6083 93.899 88.0326 92.9509C88.4895 91.9342 89.3334 91.0633 89.2541 89.8922C89.2168 89.3302 88.7506 88.7982 88.0885 88.8197C87.6129 88.8368 87.2353 88.7682 86.7923 88.6052C85.5708 88.1676 84.6942 90.0595 85.8925 90.5657C86.2142 90.703 86.2282 90.7459 86.3214 91.0719C86.4147 91.4108 86.41 91.784 86.3914 92.1615C86.3261 93.4142 86.1676 94.6669 86.0557 95.9152C85.8226 98.4849 85.5894 101.055 85.3563 103.624C85.2491 104.813 87.4544 105.109 87.6456 103.907C88.0978 101.05 88.2517 98.176 88.0419 95.2932C87.944 93.929 85.6454 93.9032 85.7107 95.2932C85.7759 96.666 85.8365 98.0388 85.9018 99.4115C85.9345 100.081 85.9624 100.75 85.9951 101.415C86.0137 101.767 86.037 102.118 86.0464 102.47C86.0464 102.552 86.0277 102.655 86.0464 102.736C86.0603 102.698 86.0603 102.711 86.037 102.779C85.9811 102.946 86.0464 102.878 86.2329 102.573C86.8017 102.788 87.3752 103.002 87.944 103.212C86.3727 99.6046 86.0324 95.6535 87.0488 91.8741C87.4358 90.5228 85.1885 89.9522 84.8248 91.295Z" fill="white"/>
<mask id="mask1_2463_653" style="mask-type:luminance" maskUnits="userSpaceOnUse" x="0" y="73" width="87" height="62">
<path d="M86.5025 73.834H0V135H86.5025V73.834Z" fill="white"/>
</mask>
<g mask="url(#mask1_2463_653)">
<path d="M68.4593 96.0473C58.048 99.0588 47.0306 102.602 35.5517 106.789C22.9398 111.388 11.2976 116.201 0.662547 121.019V121.345C0.298876 123.203 0.0144668 125.446 0.000479447 127.994C-0.0135079 130.697 0.280226 133.065 0.662547 135.009C10.864 130.74 19.0886 127.171 24.5763 124.764C26.2081 124.048 41.5569 117.313 58.7707 110.972C62.3468 109.655 68.5945 107.699 77.0102 106.837C80.9686 106.433 84.2697 106.403 86.5076 106.45C86.5076 100.372 86.5076 94.2884 86.5076 88.2096C85.8502 88.231 84.8711 88.2096 83.7242 87.9736C81.8778 87.5961 80.6003 86.8797 80.0315 86.5451C77.4578 85.035 74.6976 83.7866 72.2545 82.105C69.168 79.9815 65.1769 77.3603 59.568 73.834C51.2408 74.3187 42.9137 74.8078 34.5912 75.2926C39.9903 79.1964 45.9909 83.2161 52.6116 87.21C58.0713 90.5133 63.3819 93.4433 68.4593 96.0473Z" fill="black"/>
</g>
<mask id="mask2_2463_653" style="mask-type:luminance" maskUnits="userSpaceOnUse" x="86" y="73" width="87" height="62">
<path d="M173.001 73.834H86.498V135H173.001V73.834Z" fill="white"/>
</mask>
<g mask="url(#mask2_2463_653)">
<path d="M104.541 96.0473C114.952 99.0588 125.969 102.602 137.448 106.789C150.06 111.388 161.702 116.201 172.337 121.019V121.345C172.701 123.203 172.985 125.446 172.999 127.994C173.013 130.697 172.72 133.065 172.337 135.009C162.136 130.74 153.911 127.171 148.424 124.764C146.792 124.048 131.443 117.313 114.229 110.972C110.653 109.655 104.405 107.699 95.9896 106.837C92.0312 106.433 88.7302 106.403 86.4922 106.45C86.4922 100.372 86.4922 94.2884 86.4922 88.2096C87.1496 88.231 88.1287 88.2096 89.2757 87.9736C91.122 87.5961 92.3995 86.8797 92.9683 86.5451C95.542 85.035 98.3022 83.7866 100.745 82.105C103.832 79.9815 107.823 77.3603 113.432 73.834C121.759 74.3187 130.086 74.8078 138.409 75.2926C133.009 79.1964 127.009 83.2161 120.388 87.21C114.928 90.5133 109.613 93.4433 104.541 96.0473Z" fill="black"/>
</g>
</svg>
