<svg width="99" height="28" viewBox="0 0 99 28" fill="none" xmlns="http://www.w3.org/2000/svg">
<g clip-path="url(#clip0_2489_403)">
<path d="M3.54 11.43C3.54 10.3447 4.14867 9.802 5.366 9.802V11.21C5.17533 11.4153 5.02133 11.6133 4.904 11.804L4.992 11.892C5.46133 11.232 5.96 10.7187 6.488 10.352C7.016 9.98533 7.62467 9.802 8.314 9.802C9.64867 9.802 10.5653 10.44 11.064 11.716C11.9 10.44 13.0147 9.802 14.408 9.802C15.4493 9.802 16.2487 10.154 16.806 10.858C17.378 11.5473 17.664 12.4567 17.664 13.586V19.79C17.664 20.274 17.5027 20.6333 17.18 20.868C16.872 21.088 16.4027 21.198 15.772 21.198V13.696C15.772 12.992 15.6253 12.442 15.332 12.046C15.0387 11.65 14.5767 11.452 13.946 11.452C13.286 11.452 12.7213 11.6793 12.252 12.134C11.7827 12.574 11.548 13.168 11.548 13.916V19.79C11.548 20.274 11.394 20.6333 11.086 20.868C10.778 21.088 10.3087 21.198 9.678 21.198V13.696C9.678 12.992 9.53133 12.442 9.238 12.046C8.94467 11.65 8.48267 11.452 7.852 11.452C7.17733 11.452 6.60533 11.694 6.136 12.178C5.66667 12.662 5.432 13.256 5.432 13.96V19.79C5.432 20.274 5.27067 20.6333 4.948 20.868C4.64 21.088 4.17067 21.198 3.54 21.198V11.43ZM24.1861 21.198C22.9248 21.198 21.9055 20.8607 21.1281 20.186C20.3655 19.5113 19.9841 18.624 19.9841 17.524C19.9841 16.4093 20.3875 15.5147 21.1941 14.84C22.0008 14.1507 23.0641 13.806 24.3841 13.806C25.7921 13.806 26.9508 14.3047 27.8601 15.302L27.9481 15.214C27.7868 15.038 27.6035 14.8547 27.3981 14.664V13.74C27.3981 12.992 27.1635 12.4127 26.6941 12.002C26.2248 11.5913 25.5575 11.386 24.6921 11.386C23.1521 11.386 22.0521 11.9947 21.3921 13.212C21.1575 13.0947 20.9595 12.9407 20.7981 12.75C20.6515 12.5447 20.5781 12.3393 20.5781 12.134C20.5781 11.738 20.7761 11.364 21.1721 11.012C21.5681 10.6453 22.0888 10.352 22.7341 10.132C23.3941 9.912 24.0835 9.802 24.8021 9.802C26.1955 9.802 27.2881 10.1467 28.0801 10.836C28.8868 11.5253 29.2901 12.4787 29.2901 13.696V19.724C29.2901 20.2373 29.1435 20.6113 28.8501 20.846C28.5568 21.0807 28.0948 21.198 27.4641 21.198V20.164C27.7721 19.8413 27.9408 19.6507 27.9701 19.592L27.8821 19.504C26.9288 20.6333 25.6968 21.198 24.1861 21.198ZM24.5161 19.68C25.4255 19.68 26.1368 19.4893 26.6501 19.108C27.1781 18.7267 27.4421 18.1987 27.4421 17.524C27.4421 16.8493 27.1855 16.314 26.6721 15.918C26.1588 15.522 25.4548 15.324 24.5601 15.324C23.7241 15.324 23.0641 15.522 22.5801 15.918C22.1108 16.2993 21.8761 16.8347 21.8761 17.524C21.8761 18.2133 22.1035 18.7487 22.5581 19.13C23.0275 19.4967 23.6801 19.68 24.5161 19.68ZM32.2646 11.43C32.2646 10.3447 32.8806 9.802 34.1126 9.802V11.21C33.9806 11.342 33.8266 11.54 33.6506 11.804L33.7386 11.892C34.1786 11.276 34.7506 10.7773 35.4546 10.396C36.1586 10 36.9213 9.802 37.7426 9.802C38.9306 9.802 39.8693 10.154 40.5586 10.858C41.2479 11.562 41.5926 12.4713 41.5926 13.586V19.79C41.5926 20.274 41.4313 20.6333 41.1086 20.868C40.8006 21.088 40.3239 21.198 39.6786 21.198V13.784C39.6786 13.08 39.4806 12.5227 39.0846 12.112C38.6886 11.7013 38.0873 11.496 37.2806 11.496C36.7379 11.496 36.2246 11.6133 35.7406 11.848C35.2713 12.068 34.8899 12.376 34.5966 12.772C34.3179 13.1533 34.1786 13.5713 34.1786 14.026V19.79C34.1786 20.274 34.0173 20.6333 33.6946 20.868C33.3866 21.088 32.9099 21.198 32.2646 21.198V11.43ZM44.4463 11.43C44.4463 10.3447 45.0623 9.802 46.2943 9.802V11.21C46.1623 11.342 46.0083 11.54 45.8323 11.804L45.9203 11.892C46.3603 11.276 46.9323 10.7773 47.6363 10.396C48.3403 10 49.1029 9.802 49.9243 9.802C51.1123 9.802 52.0509 10.154 52.7403 10.858C53.4296 11.562 53.7743 12.4713 53.7743 13.586V19.79C53.7743 20.274 53.6129 20.6333 53.2903 20.868C52.9823 21.088 52.5056 21.198 51.8603 21.198V13.784C51.8603 13.08 51.6623 12.5227 51.2663 12.112C50.8703 11.7013 50.2689 11.496 49.4623 11.496C48.9196 11.496 48.4063 11.6133 47.9223 11.848C47.4529 12.068 47.0716 12.376 46.7783 12.772C46.4996 13.1533 46.3603 13.5713 46.3603 14.026V19.79C46.3603 20.274 46.1989 20.6333 45.8763 20.868C45.5683 21.088 45.0916 21.198 44.4463 21.198V11.43Z" fill="#D90000"/>
<path d="M65.7799 20.714C65.6626 20.8607 65.5159 20.978 65.3399 21.066C65.1639 21.154 64.9659 21.198 64.7459 21.198C64.5112 21.198 64.3059 21.154 64.1299 21.066C63.9539 20.978 63.7926 20.8167 63.6459 20.582L60.1479 15.104L58.5199 16.556V19.812C58.5199 20.736 57.8892 21.198 56.6279 21.198V6.986C56.6279 5.93 57.2659 5.402 58.5419 5.402L58.5199 14.598L63.8439 9.824C64.2692 10.22 64.4819 10.5573 64.4819 10.836C64.4819 11.0413 64.4306 11.21 64.3279 11.342C64.2399 11.4593 64.0639 11.6353 63.7999 11.87L61.3359 14.048L65.7799 20.714ZM71.0865 21.198C69.8252 21.198 68.8059 20.8607 68.0285 20.186C67.2659 19.5113 66.8845 18.624 66.8845 17.524C66.8845 16.4093 67.2879 15.5147 68.0945 14.84C68.9012 14.1507 69.9645 13.806 71.2845 13.806C72.6925 13.806 73.8512 14.3047 74.7605 15.302L74.8485 15.214C74.6872 15.038 74.5039 14.8547 74.2985 14.664V13.74C74.2985 12.992 74.0639 12.4127 73.5945 12.002C73.1252 11.5913 72.4579 11.386 71.5925 11.386C70.0525 11.386 68.9525 11.9947 68.2925 13.212C68.0579 13.0947 67.8599 12.9407 67.6985 12.75C67.5519 12.5447 67.4785 12.3393 67.4785 12.134C67.4785 11.738 67.6765 11.364 68.0725 11.012C68.4685 10.6453 68.9892 10.352 69.6345 10.132C70.2945 9.912 70.9839 9.802 71.7025 9.802C73.0959 9.802 74.1885 10.1467 74.9805 10.836C75.7872 11.5253 76.1905 12.4787 76.1905 13.696V19.724C76.1905 20.2373 76.0439 20.6113 75.7505 20.846C75.4572 21.0807 74.9952 21.198 74.3645 21.198V20.164C74.6725 19.8413 74.8412 19.6507 74.8705 19.592L74.7825 19.504C73.8292 20.6333 72.5972 21.198 71.0865 21.198ZM71.4165 19.68C72.3259 19.68 73.0372 19.4893 73.5505 19.108C74.0785 18.7267 74.3425 18.1987 74.3425 17.524C74.3425 16.8493 74.0859 16.314 73.5725 15.918C73.0592 15.522 72.3552 15.324 71.4605 15.324C70.6245 15.324 69.9645 15.522 69.4805 15.918C69.0112 16.2993 68.7765 16.8347 68.7765 17.524C68.7765 18.2133 69.0039 18.7487 69.4585 19.13C69.9279 19.4967 70.5805 19.68 71.4165 19.68ZM83.939 11.496C83.1177 11.496 82.4357 11.7453 81.893 12.244C81.3503 12.728 81.079 13.322 81.079 14.026V19.79C81.079 20.274 80.9177 20.6333 80.595 20.868C80.287 21.088 79.8103 21.198 79.165 21.198V11.43C79.165 10.3447 79.781 9.802 81.013 9.802V11.144C80.7783 11.3933 80.617 11.6133 80.529 11.804L80.617 11.892C81.5557 10.4987 82.729 9.802 84.137 9.802C84.665 9.802 85.0683 9.934 85.347 10.198C85.6257 10.4473 85.765 10.7553 85.765 11.122C85.765 11.386 85.699 11.6207 85.567 11.826C85.1563 11.606 84.6137 11.496 83.939 11.496ZM91.5147 21.198C90.6201 21.198 89.8207 21.0293 89.1167 20.692C88.4127 20.34 87.8627 19.8633 87.4667 19.262C87.0707 18.646 86.8727 17.9567 86.8727 17.194V13.938C86.8727 13.1607 87.0781 12.4567 87.4887 11.826C87.9141 11.1953 88.4787 10.704 89.1827 10.352C89.9014 9.98533 90.6787 9.802 91.5147 9.802C92.3507 9.802 93.1134 9.978 93.8027 10.33C94.5067 10.682 95.0567 11.166 95.4527 11.782C95.8634 12.398 96.0687 13.0947 96.0687 13.872V15.28C96.0687 15.5147 95.9807 15.7127 95.8047 15.874C95.6287 16.0353 95.4161 16.116 95.1667 16.116H88.7427V17.106C88.7427 17.854 88.9774 18.4553 89.4467 18.91C89.9307 19.3647 90.6201 19.592 91.5147 19.592C92.4094 19.592 93.0914 19.394 93.5607 18.998C94.0301 18.602 94.2647 18.0667 94.2647 17.392C94.7047 17.3627 95.0714 17.4507 95.3647 17.656C95.6727 17.8467 95.8267 18.1327 95.8267 18.514C95.8267 18.9833 95.6214 19.4233 95.2107 19.834C94.8147 20.2447 94.2867 20.5747 93.6267 20.824C92.9667 21.0733 92.2627 21.198 91.5147 21.198ZM94.2867 14.62V13.872C94.2867 13.1387 94.0301 12.5447 93.5167 12.09C93.0181 11.6207 92.3507 11.386 91.5147 11.386C90.6787 11.386 90.0041 11.6207 89.4907 12.09C88.9921 12.5447 88.7427 13.1387 88.7427 13.872V14.62H94.2867Z" fill="black"/>
</g>
<defs>
<clipPath id="clip0_2489_403">
<rect width="99" height="28" fill="white"/>
</clipPath>
</defs>
</svg>
