<svg width="1024" height="494" viewBox="0 0 1024 494" fill="none" xmlns="http://www.w3.org/2000/svg">
<g clip-path="url(#clip0_2842_527)">
<path d="M92.7852 297.879C84.2891 297.879 80.041 292.84 80.041 282.762V194.871H108.869V222.381H106.057V282.762C106.057 287.566 104.885 291.287 102.541 293.924C100.256 296.561 97.0039 297.879 92.7852 297.879ZM141.301 287.596C138.312 287.596 135.734 286.746 133.566 285.047C131.398 283.289 129.465 280.213 127.766 275.818L95.9492 194.871H80.041C80.041 189.012 81.5938 184.412 84.6992 181.072C87.8047 177.732 92.0527 176.062 97.4434 176.062C102.072 176.062 105.969 177.381 109.133 180.018C112.355 182.596 115.139 187.02 117.482 193.289L140.773 253.23H141.74L164.943 193.201C167.346 186.814 170.1 182.361 173.205 179.842C176.311 177.322 180.295 176.062 185.158 176.062C190.607 176.062 194.826 177.703 197.814 180.984C200.803 184.266 202.297 188.895 202.297 194.871H186.477L154.66 275.818C152.961 280.33 151.027 283.436 148.859 285.135C146.75 286.775 144.23 287.596 141.301 287.596ZM189.025 297.879C180.588 297.879 176.369 292.84 176.369 282.762V222.381H173.557V194.871H202.297V282.762C202.297 287.566 201.154 291.287 198.869 293.924C196.584 296.561 193.303 297.879 189.025 297.879ZM247.385 267.645C247.385 270.926 248.586 273.621 250.988 275.73C253.449 277.781 256.584 278.807 260.393 278.807C263.146 278.807 265.637 278.25 267.863 277.137C270.09 276.023 271.848 274.5 273.137 272.566C274.484 270.633 275.158 268.494 275.158 266.15V257.01H260.744C256.643 257.01 253.391 257.947 250.988 259.822C248.586 261.697 247.385 264.305 247.385 267.645ZM275.07 285.486C273.605 288.123 271.643 290.379 269.182 292.254C266.779 294.129 263.967 295.564 260.744 296.561C257.58 297.557 254.123 298.055 250.373 298.055C241.232 298.055 233.82 295.447 228.137 290.232C222.453 285.018 219.611 278.162 219.611 269.666C219.611 260.877 222.688 253.992 228.84 249.012C235.051 243.973 243.576 241.424 254.416 241.365H275.158V234.598C275.158 230.613 273.928 227.596 271.467 225.545C269.006 223.494 265.52 222.469 261.008 222.469C257.785 222.469 254.885 223.055 252.307 224.227C249.787 225.398 247.268 226.893 244.748 228.709C243.342 229.646 241.848 230.379 240.266 230.906C238.684 231.375 236.779 231.609 234.553 231.609C231.564 231.609 229.191 230.701 227.434 228.885C225.676 227.068 224.797 224.812 224.797 222.117C224.797 219.246 225.793 216.463 227.785 213.768C229.836 211.014 233.029 208.611 237.365 206.561C240.471 205.037 244.133 203.865 248.352 203.045C252.57 202.166 257.404 201.727 262.854 201.727C275.803 201.727 285.793 204.627 292.824 210.428C299.855 216.17 303.371 224.344 303.371 234.949V282.938C303.371 287.742 302.17 291.434 299.768 294.012C297.424 296.59 294.055 297.879 289.66 297.879C286.086 297.879 283.098 296.971 280.695 295.154C278.352 293.338 276.916 290.73 276.389 287.332V285.486C276.33 285.486 276.096 285.486 275.686 285.486C275.275 285.486 275.07 285.486 275.07 285.486ZM409.631 282.498C409.631 292.752 404.914 297.879 395.48 297.879C386.047 297.879 381.33 292.723 381.33 282.41V242.332C381.33 236.941 380.041 232.723 377.463 229.676C374.943 226.629 371.369 225.105 366.74 225.105C363.459 225.105 360.588 225.926 358.127 227.566C355.666 229.148 353.762 231.434 352.414 234.422C351.066 237.352 350.393 240.896 350.393 245.057V282.41C350.393 292.723 345.705 297.879 336.33 297.879C331.76 297.879 328.244 296.561 325.783 293.924C323.381 291.229 322.18 287.391 322.18 282.41V217.283C322.18 212.654 323.41 209.021 325.871 206.385C328.332 203.689 331.701 202.342 335.979 202.342C344.65 202.342 349.191 206.883 349.602 215.965V219.393H351.008C352.18 215.818 354.084 212.713 356.721 210.076C359.357 207.439 362.551 205.389 366.301 203.924C370.051 202.459 374.152 201.727 378.605 201.727C388.508 201.727 396.154 204.627 401.545 210.428C406.936 216.17 409.631 224.344 409.631 234.949V282.498ZM516.682 282.498C516.682 292.752 511.965 297.879 502.531 297.879C493.098 297.879 488.381 292.723 488.381 282.41V242.332C488.381 236.941 487.092 232.723 484.514 229.676C481.994 226.629 478.42 225.105 473.791 225.105C470.51 225.105 467.639 225.926 465.178 227.566C462.717 229.148 460.812 231.434 459.465 234.422C458.117 237.352 457.443 240.896 457.443 245.057V282.41C457.443 292.723 452.756 297.879 443.381 297.879C438.811 297.879 435.295 296.561 432.834 293.924C430.432 291.229 429.23 287.391 429.23 282.41V217.283C429.23 212.654 430.461 209.021 432.922 206.385C435.383 203.689 438.752 202.342 443.029 202.342C451.701 202.342 456.242 206.883 456.652 215.965V219.393H458.059C459.23 215.818 461.135 212.713 463.771 210.076C466.408 207.439 469.602 205.389 473.352 203.924C477.102 202.459 481.203 201.727 485.656 201.727C495.559 201.727 503.205 204.627 508.596 210.428C513.986 216.17 516.682 224.344 516.682 234.949V282.498ZM917.375 283.201C917.375 278.865 918.928 275.145 922.033 272.039C925.139 268.934 928.859 267.381 933.195 267.381C937.531 267.381 941.252 268.934 944.357 272.039C947.463 275.145 949.016 278.865 949.016 283.201C949.016 287.537 947.463 291.258 944.357 294.363C941.252 297.469 937.531 299.021 933.195 299.021C928.859 299.021 925.139 297.469 922.033 294.363C918.928 291.258 917.375 287.537 917.375 283.201Z" fill="#D60000"/>
<path d="M621.711 297.703C616.496 297.703 611.691 294.686 607.297 288.65L578.117 248.484L567.043 259.734V282.234C567.043 287.215 565.812 291.082 563.352 293.836C560.891 296.531 557.375 297.879 552.805 297.879C548.117 297.879 544.455 296.502 541.818 293.748C539.24 290.994 537.951 287.156 537.951 282.234V191.795C537.951 186.756 539.211 182.889 541.73 180.193C544.25 177.498 547.824 176.15 552.453 176.15C557.082 176.15 560.656 177.527 563.176 180.281C565.754 182.977 567.043 186.814 567.043 191.795V226.336H568.625L608.967 182.479C610.959 180.311 612.834 178.758 614.592 177.82C616.408 176.824 618.342 176.326 620.393 176.326C624.025 176.326 627.043 177.557 629.445 180.018C631.906 182.479 633.137 185.496 633.137 189.07C633.137 190.828 632.727 192.498 631.906 194.08C631.145 195.662 629.797 197.508 627.863 199.617L599.65 230.115L629.709 270.721C632.053 273.885 633.635 276.375 634.455 278.191C635.275 280.008 635.686 281.941 635.686 283.992C635.686 287.977 634.367 291.258 631.73 293.836C629.152 296.414 625.812 297.703 621.711 297.703ZM673.127 267.645C673.127 270.926 674.328 273.621 676.73 275.73C679.191 277.781 682.326 278.807 686.135 278.807C688.889 278.807 691.379 278.25 693.605 277.137C695.832 276.023 697.59 274.5 698.879 272.566C700.227 270.633 700.9 268.494 700.9 266.15V257.01H686.486C682.385 257.01 679.133 257.947 676.73 259.822C674.328 261.697 673.127 264.305 673.127 267.645ZM700.812 285.486C699.348 288.123 697.385 290.379 694.924 292.254C692.521 294.129 689.709 295.564 686.486 296.561C683.322 297.557 679.865 298.055 676.115 298.055C666.975 298.055 659.562 295.447 653.879 290.232C648.195 285.018 645.354 278.162 645.354 269.666C645.354 260.877 648.43 253.992 654.582 249.012C660.793 243.973 669.318 241.424 680.158 241.365H700.9V234.598C700.9 230.613 699.67 227.596 697.209 225.545C694.748 223.494 691.262 222.469 686.75 222.469C683.527 222.469 680.627 223.055 678.049 224.227C675.529 225.398 673.01 226.893 670.49 228.709C669.084 229.646 667.59 230.379 666.008 230.906C664.426 231.375 662.521 231.609 660.295 231.609C657.307 231.609 654.934 230.701 653.176 228.885C651.418 227.068 650.539 224.812 650.539 222.117C650.539 219.246 651.535 216.463 653.527 213.768C655.578 211.014 658.771 208.611 663.107 206.561C666.213 205.037 669.875 203.865 674.094 203.045C678.312 202.166 683.146 201.727 688.596 201.727C701.545 201.727 711.535 204.627 718.566 210.428C725.598 216.17 729.113 224.344 729.113 234.949V282.938C729.113 287.742 727.912 291.434 725.51 294.012C723.166 296.59 719.797 297.879 715.402 297.879C711.828 297.879 708.84 296.971 706.438 295.154C704.094 293.338 702.658 290.73 702.131 287.332V285.486C702.072 285.486 701.838 285.486 701.428 285.486C701.018 285.486 700.812 285.486 700.812 285.486ZM776.398 282.41C776.398 287.332 775.139 291.141 772.619 293.836C770.158 296.531 766.613 297.879 761.984 297.879C757.355 297.879 753.898 296.531 751.613 293.836C749.328 291.141 748.186 287.332 748.186 282.41V217.811C748.186 212.83 749.357 209.021 751.701 206.385C754.104 203.689 757.561 202.342 762.072 202.342C766.174 202.342 769.367 203.455 771.652 205.682C773.938 207.908 775.227 211.16 775.52 215.438V216.756H776.838C777.893 213.533 779.328 210.809 781.145 208.582C782.961 206.297 785.1 204.598 787.561 203.484C790.021 202.313 792.746 201.727 795.734 201.727C799.602 201.727 802.648 202.781 804.875 204.891C807.219 207.059 808.391 210.105 808.391 214.031C808.391 215.965 808.098 217.664 807.512 219.129C806.926 220.535 806.076 221.707 804.963 222.645C803.908 223.523 802.561 224.227 800.92 224.754C799.338 225.223 797.492 225.486 795.383 225.545C791.164 225.662 787.619 226.541 784.748 228.182C781.936 229.764 779.826 232.078 778.42 235.125C777.072 238.113 776.398 241.863 776.398 246.375V282.41ZM815.686 255.34V244.969C815.686 236.121 817.502 228.416 821.135 221.854C824.826 215.232 829.982 210.076 836.604 206.385C843.225 202.693 850.93 200.848 859.719 200.848C868.039 200.848 875.363 202.635 881.691 206.209C888.078 209.725 893.088 214.559 896.721 220.711C900.354 226.805 902.17 233.748 902.17 241.541C902.17 246.873 901.115 250.652 899.006 252.879C896.955 255.047 893.381 256.131 888.283 256.131H844.426V259.559C844.484 265.125 846.271 269.607 849.787 273.006C853.303 276.404 858.225 278.104 864.553 278.104C866.252 278.104 867.805 278.016 869.211 277.84C870.676 277.664 871.994 277.4 873.166 277.049C874.396 276.639 875.539 276.199 876.594 275.73C877.648 275.262 878.615 274.676 879.494 273.973C881.662 272.625 883.42 271.57 884.768 270.809C886.115 269.988 887.873 269.578 890.041 269.578C892.912 269.578 895.197 270.457 896.896 272.215C898.654 273.914 899.533 276.258 899.533 279.246C899.533 281.766 898.771 284.109 897.248 286.277C895.783 288.387 893.732 290.291 891.096 291.99C887.873 294.275 883.801 296.062 878.879 297.352C873.957 298.641 868.508 299.285 862.531 299.285C848.059 299.285 836.633 295.389 828.254 287.596C819.875 279.803 815.686 269.051 815.686 255.34ZM844.426 239.959H875.539V239.695C875.539 234.305 874.162 229.998 871.408 226.775C868.654 223.553 864.963 221.941 860.334 221.941C855.354 221.941 851.457 223.582 848.645 226.863C845.832 230.086 844.426 234.363 844.426 239.695V239.959Z" fill="black"/>
<circle cx="935.5" cy="279.5" r="22.5" fill="#FA0000"/>
</g>
<defs>
<clipPath id="clip0_2842_527">
<rect width="494" height="1024" fill="white" transform="matrix(0 1 -1 0 1024 0)"/>
</clipPath>
</defs>
</svg>
