<svg width="32" height="26" viewBox="0 0 32 26" fill="none" xmlns="http://www.w3.org/2000/svg">
<path d="M5.32916 13.3091C6.82288 13.2364 8.31746 13.1636 9.81118 13.0901C9.09192 12.7026 8.07253 12.0689 7.04021 11.084C6.27438 10.3528 5.63532 9.74718 5.18255 8.76562C4.95314 8.26823 3.91996 6.02666 5.2067 4.2924C6.11052 3.07454 7.5982 2.86302 7.77327 2.84072C8.78317 2.71182 9.54383 3.03653 10.5115 3.44965C10.5572 3.46948 10.6106 3.49261 10.671 3.51988C11.8422 4.05858 12.6693 4.71543 13.298 5.22935C14.2371 5.99609 15.1254 6.74301 15.9948 7.49983C15.9939 7.13133 15.9939 6.76284 15.9939 6.39516C15.9939 5.65569 15.9939 4.91621 15.9956 4.17673C15.7645 3.92225 15.4497 3.58928 15.059 3.21582C14.4959 2.67795 13.9853 2.25492 13.7145 2.04506C13.2583 1.6906 12.1035 0.794968 10.5606 0.335583C10.0665 0.188514 7.42313 -0.541874 4.86173 0.794968C4.42361 1.02383 3.38698 1.57989 2.59182 2.75148C1.76648 3.9677 1.67334 5.14921 1.63712 5.69782C1.51724 7.52379 2.2184 8.88377 2.78587 9.98348C3.2145 10.8114 3.98378 12.0581 5.32916 13.3091Z" fill="#EB455F"/>
<mask id="mask0_2226_3549" style="mask-type:luminance" maskUnits="userSpaceOnUse" x="15" y="0" width="16" height="14">
<path d="M30.3653 0H15.9947V13.3064H30.3653V0Z" fill="white"/>
</mask>
<g mask="url(#mask0_2226_3549)">
<path d="M26.6618 13.3066C25.168 13.2339 23.6735 13.1612 22.1797 13.0877C22.899 12.7002 23.9184 12.0665 24.9507 11.0816C25.7165 10.3504 26.3556 9.74474 26.8084 8.76318C27.0378 8.26579 28.071 6.02422 26.7842 4.28996C25.8804 3.0721 24.3927 2.86058 24.2177 2.83827C23.2078 2.70938 22.4471 3.03409 21.4795 3.44721C21.4337 3.46704 21.3803 3.49017 21.3199 3.51744C20.1487 4.05614 19.3217 4.71299 18.693 5.22691C17.7538 5.99365 16.8655 6.74056 15.9962 7.49739C15.997 7.12889 15.997 6.76039 15.997 6.39272C15.997 5.65324 15.997 4.91377 15.9953 4.17429C16.2264 3.91981 16.5412 3.58684 16.9319 3.21338C17.4951 2.67551 18.0056 2.25248 18.2764 2.04261C18.7326 1.68816 19.8874 0.792526 21.4303 0.333142C21.9245 0.186073 24.5678 -0.544316 27.1292 0.792526C27.5673 1.02139 28.6039 1.57745 29.3991 2.74904C30.2244 3.96525 30.3176 5.14676 30.3538 5.69538C30.4737 7.52135 29.7725 8.88133 29.2051 9.98104C28.7764 10.8089 28.0071 12.0557 26.6618 13.3066Z" fill="#EB455F"/>
</g>
<path d="M15.6903 17.5838C15.485 18.3778 15.5376 19.2264 15.8559 19.9873C15.9042 20.103 16.0447 20.1914 16.1724 20.1104C16.3026 20.0286 16.35 19.9047 16.3518 19.7593C16.3535 19.6089 16.3388 19.4569 16.3319 19.3073C16.3173 18.9892 16.3035 18.6703 16.2888 18.3522C16.1448 18.3522 16.0016 18.3522 15.8576 18.3522C15.8938 18.8686 15.8774 19.3891 15.7998 19.9014C15.9413 19.9196 16.0818 19.9377 16.2233 19.9559C16.2707 19.4065 16.319 18.8579 16.3664 18.3084C16.3863 18.0762 16.4311 17.8342 16.413 17.6003C16.3966 17.3946 16.3181 17.1757 16.1086 17.0839C16.0534 17.2095 15.9982 17.3359 15.9421 17.4615C16.0551 17.5037 16.1758 17.5218 16.2966 17.5177C16.225 17.4491 16.1525 17.3797 16.081 17.3112C16.0879 17.4177 16.0094 17.5061 15.9602 17.597C15.8955 17.716 15.8438 17.8433 15.8067 17.9721C15.7325 18.2341 15.711 18.5108 15.717 18.7818C15.7239 19.0859 15.7636 19.3875 15.8067 19.6882C15.8257 19.8221 15.8326 19.9609 15.9404 20.0609C16.0577 20.1691 16.2517 20.1674 16.3647 20.0551C16.4742 19.9444 16.4302 19.7494 16.2698 19.7097C16.1491 19.68 16.0249 19.6676 15.9007 19.6791C15.7852 19.6899 15.6851 19.7667 15.6851 19.8857C15.6851 19.9972 15.7834 20.0923 15.9007 20.0923C15.9878 20.0923 16.0758 20.0923 16.1629 20.0914C16.1629 19.9534 16.1629 19.8163 16.1629 19.6783C16.0585 19.6808 15.9542 19.6841 15.8498 19.6866C15.6722 19.6915 15.5997 19.8551 15.6635 19.9972C15.7187 20.1203 15.8447 20.1765 15.9766 20.1873C15.9766 20.0493 15.9766 19.9121 15.9766 19.7742C15.9188 19.7725 15.861 19.7708 15.8024 19.7692C15.686 19.7659 15.5868 19.8667 15.5868 19.9758C15.5868 20.098 15.686 20.1699 15.8024 20.1823C16.1387 20.2178 16.5113 20.1245 16.5881 19.7618C16.6536 19.4494 16.4872 19.1239 16.2992 18.8793C16.1983 18.748 16.0853 18.6273 15.9533 18.5249C15.8869 18.4737 15.8188 18.4241 15.7463 18.3803C15.7032 18.3539 15.5971 18.3142 15.5756 18.2638C15.5488 18.2002 15.6808 18.1233 15.7325 18.1019C15.8964 18.0358 16.0775 18.0283 16.2414 17.9573C16.4406 17.8705 16.5958 17.6317 16.4061 17.4541C16.3268 17.3797 16.2052 17.3665 16.1017 17.3492C15.9801 17.3293 15.8576 17.3153 15.7343 17.307C15.5894 17.2971 15.4954 17.4467 15.5264 17.5681C15.5695 17.7391 15.7024 17.8375 15.8093 17.9697C15.8774 18.0531 15.9275 18.1506 15.9602 18.2489C16.037 18.4836 16.0292 18.7298 15.9447 18.9628C15.9076 19.0644 15.8507 19.166 15.7791 19.2495C15.6877 19.3569 15.5575 19.4247 15.4721 19.5345C15.3445 19.6981 15.3841 19.9055 15.5601 20.0171C15.7231 20.1203 15.9326 20.1592 16.1224 20.1798C16.1034 20.0443 16.0844 19.9097 16.0654 19.7742C15.9611 19.789 15.8593 19.7742 15.7593 19.7452C15.7403 19.8807 15.7213 20.0154 15.7024 20.1509C15.7584 20.1534 15.8145 20.1559 15.8705 20.1583C15.8343 20.1493 15.7981 20.1393 15.7619 20.1303C15.8291 20.1691 15.8964 20.2071 15.9628 20.2459C15.999 20.1179 16.0353 19.989 16.0715 19.8609C15.9947 19.8626 15.9171 19.8642 15.8403 19.8667C15.5635 19.8733 15.5626 20.2864 15.8403 20.2798C15.9171 20.2782 15.9947 20.2765 16.0715 20.274C16.2845 20.2691 16.3664 19.9956 16.1801 19.889C16.1137 19.851 16.0482 19.8072 15.9792 19.7733C15.8964 19.7328 15.7938 19.7419 15.7024 19.7378C15.454 19.7271 15.4178 20.0774 15.6454 20.1435C15.8231 20.1947 15.9982 20.1988 16.1801 20.1724C16.2845 20.1575 16.3492 20.0369 16.3345 19.946C16.3173 19.8378 16.2328 19.7783 16.1224 19.7667C16.0404 19.7576 15.9568 19.737 15.88 19.7089C15.8628 19.7023 15.8179 19.6709 15.8007 19.6742C15.7808 19.7072 15.7843 19.7444 15.811 19.7865C15.8127 19.7758 15.8196 19.7675 15.8326 19.7618C15.9318 19.7047 16.0275 19.6064 16.0999 19.5205C16.2655 19.3239 16.3776 19.09 16.419 18.8397C16.4604 18.5893 16.4484 18.3282 16.3569 18.0886C16.313 17.9721 16.256 17.8606 16.1801 17.7606C16.1086 17.6664 15.9697 17.5731 15.9404 17.4574C15.8714 17.5442 15.8015 17.6317 15.7325 17.7185C15.8102 17.7243 15.8878 17.7309 15.9645 17.7425C16.0059 17.7491 16.0465 17.7557 16.087 17.7639C16.1008 17.7664 16.1137 17.7697 16.1275 17.7722C16.1638 17.7821 16.1594 17.7788 16.1137 17.7606C16.0956 17.7301 16.0767 17.6995 16.0585 17.6697C16.0577 17.6681 16.0577 17.6656 16.0568 17.664C16.0663 17.6293 16.0767 17.5946 16.0861 17.5599C16.0663 17.6012 15.9507 17.6185 15.9016 17.6309C15.8196 17.6507 15.736 17.6656 15.6549 17.6904C15.4868 17.7408 15.3384 17.83 15.2358 17.9697C15.1288 18.1143 15.1047 18.3092 15.1996 18.4662C15.2841 18.6059 15.4341 18.6761 15.5678 18.7628C15.8093 18.9198 16.0232 19.1611 16.1258 19.4255C16.1586 19.5098 16.2052 19.6486 16.1431 19.7279C16.0749 19.8155 15.893 19.7799 15.7998 19.77C15.7998 19.908 15.7998 20.0452 15.7998 20.1831C15.8576 20.1848 15.9154 20.1864 15.974 20.1881C16.0905 20.1914 16.1896 20.0906 16.1896 19.9815C16.1896 19.8617 16.0905 19.7849 15.974 19.775C16.0396 19.8295 16.0594 19.8345 16.0335 19.7899C15.9714 19.8931 15.9093 19.9972 15.8472 20.1005C15.9516 20.098 16.056 20.0947 16.1603 20.0923C16.4371 20.0848 16.4389 19.6783 16.1603 19.6791C16.0732 19.6791 15.9852 19.6791 15.8981 19.68C15.8981 19.8179 15.8981 19.9551 15.8981 20.0931C15.987 20.0848 16.0663 20.0881 16.1525 20.1096C16.1206 19.9948 16.0887 19.8791 16.0577 19.7642C16.0594 19.7618 16.062 19.7593 16.0637 19.7576C16.0999 19.7485 16.1362 19.7386 16.1724 19.7295C16.2095 19.7262 16.2371 19.8163 16.2474 19.7651C16.2509 19.7494 16.2396 19.718 16.2371 19.7023C16.2293 19.6469 16.2215 19.5907 16.2138 19.5354C16.1974 19.4139 16.1819 19.2925 16.1707 19.171C16.1482 18.9421 16.137 18.7116 16.1525 18.4819C16.1663 18.2853 16.2052 18.0853 16.2836 17.9027C16.3682 17.7069 16.5242 17.5392 16.5096 17.3136C16.5027 17.2054 16.4164 17.1029 16.294 17.1071C16.206 17.1104 16.1362 17.0972 16.0542 17.0658C15.8283 16.9815 15.6661 17.3459 15.8878 17.4434C15.9473 17.4698 15.9499 17.4781 15.9671 17.5409C15.9844 17.6061 15.9835 17.678 15.9801 17.7507C15.968 17.992 15.9387 18.2332 15.918 18.4737C15.8748 18.9686 15.8317 19.4635 15.7886 19.9584C15.7688 20.1873 16.1767 20.2443 16.2121 20.0129C16.2957 19.4627 16.3242 18.9091 16.2854 18.3539C16.2672 18.0911 15.8421 18.0862 15.8541 18.3539C15.8662 18.6183 15.8774 18.8826 15.8895 19.147C15.8955 19.2759 15.9007 19.4048 15.9068 19.5329C15.9102 19.6006 15.9145 19.6684 15.9162 19.7361C15.9162 19.7518 15.9128 19.7717 15.9162 19.7874C15.9188 19.7799 15.9188 19.7824 15.9145 19.7956C15.9042 19.8279 15.9162 19.8146 15.9507 19.756C16.056 19.7973 16.162 19.8386 16.2672 19.8791C15.9766 19.1842 15.9137 18.4233 16.1017 17.6954C16.1732 17.4351 15.7576 17.3252 15.6903 17.5838Z" fill="white"/>
<mask id="mask1_2226_3549" style="mask-type:luminance" maskUnits="userSpaceOnUse" x="0" y="14" width="17" height="12">
<path d="M16.0006 14.2192H0V25.9996H16.0006V14.2192Z" fill="white"/>
</mask>
<g mask="url(#mask1_2226_3549)">
<path d="M12.6631 18.4975C10.7373 19.0775 8.69937 19.7599 6.57608 20.5663C4.24322 21.4521 2.08974 22.3791 0.122553 23.307V23.3697C0.0552837 23.7275 0.00267596 24.1596 8.86845e-05 24.6504C-0.00249859 25.1709 0.051834 25.627 0.122553 26.0013C2.00954 25.1792 3.53085 24.4918 4.54593 24.0283C4.84778 23.8903 7.68688 22.5931 10.871 21.3719C11.5324 21.1183 12.6881 20.7415 14.2448 20.5754C14.977 20.4978 15.5875 20.492 16.0015 20.5011C16.0015 19.3303 16.0015 18.1587 16.0015 16.9879C15.8799 16.9921 15.6988 16.9879 15.4866 16.9425C15.1451 16.8698 14.9088 16.7318 14.8036 16.6674C14.3275 16.3765 13.817 16.1361 13.3651 15.8122C12.7942 15.4032 12.0559 14.8984 11.0184 14.2192C9.47813 14.3126 7.93784 14.4068 6.39842 14.5002C7.3971 15.252 8.50704 16.0262 9.73169 16.7954C10.7416 17.4316 11.7239 17.9959 12.6631 18.4975Z" fill="black"/>
</g>
<mask id="mask2_2226_3549" style="mask-type:luminance" maskUnits="userSpaceOnUse" x="15" y="14" width="17" height="12">
<path d="M32 14.2192H15.9995V25.9996H32V14.2192Z" fill="white"/>
</mask>
<g mask="url(#mask2_2226_3549)">
<path d="M19.3371 18.4975C21.2629 19.0775 23.3008 19.7599 25.4241 20.5663C27.757 21.4521 29.9104 22.3791 31.8776 23.307V23.3697C31.9449 23.7275 31.9975 24.1596 32.0001 24.6504C32.0027 25.1709 31.9483 25.627 31.8776 26.0013C29.9906 25.1792 28.4693 24.4918 27.4542 24.0283C27.1524 23.8903 24.3133 22.5931 21.1292 21.3719C20.4677 21.1183 19.3121 20.7415 17.7554 20.5754C17.0232 20.4978 16.4126 20.492 15.9987 20.5011C15.9987 19.3303 15.9987 18.1587 15.9987 16.9879C16.1203 16.9921 16.3014 16.9879 16.5135 16.9425C16.855 16.8698 17.0913 16.7318 17.1966 16.6674C17.6726 16.3765 18.1832 16.1361 18.6351 15.8122C19.206 15.4032 19.9443 14.8984 20.9817 14.2192C22.522 14.3126 24.0623 14.4068 25.6018 14.5002C24.6031 15.252 23.4931 16.0262 22.2685 16.7954C21.2586 17.4316 20.2754 17.9959 19.3371 18.4975Z" fill="black"/>
</g>
</svg>
